<!DOCTYPE svg PUBLIC "-//W3C//DTD SVG 1.1//EN" "http://www.w3.org/Graphics/SVG/1.1/DTD/svg11.dtd">
<!-- Uploaded to: SVG Repo, www.svgrepo.com, Transformed by: SVG Repo Mixer Tools -->
<svg width="120px" height="120px" viewBox="-12.8 -12.8 153.60 153.60" xmlns="http://www.w3.org/2000/svg" xmlns:xlink="http://www.w3.org/1999/xlink" aria-hidden="true" role="img" class="iconify iconify--noto" preserveAspectRatio="xMidYMid meet" fill="#7843E9" transform="matrix(1, 0, 0, 1, 0, 0)rotate(0)" stroke="#7843E9" stroke-width="10.751999999999999">
<g id="SVGRepo_bgCarrier" stroke-width="0" transform="translate(0,0), scale(1)">
<path transform="translate(-12.8, -12.8), scale(4.8)" d="M16,31.90060347980923C18.329590690539867,32.47780696560231,18.837150011187116,28.06517891148375,20.695630558811636,26.54655891175934C22.018650974540954,25.465479389060906,24.512029936994857,25.872951582846763,25.25781039360888,24.335769919748017C26.08692861089806,22.626814812578107,23.564592483079817,20.420491891932286,24.476229913598452,18.754094048726685C25.694183962856798,16.52777475460447,29.57352132405003,16.751906930625807,30.661069236414676,14.459059529729503C31.578113147914095,12.525681032025002,30.413488333768665,10.143547127953589,29.471811864945835,8.222045793301533C28.509049135131622,6.2575177079774384,27.379655741476352,3.5793852534578416,25.206321377698202,3.3285857016889295C22.495849686625665,3.0158013015832905,20.654102833175017,6.650974721212501,17.93620867910548,6.8908543500468635C16.229029112932412,7.041528944962206,15.164066989295238,4.862536600285098,13.525736779226413,4.359506752773431C11.381831789142993,3.7012461691540506,8.90025649327337,2.446964581632324,6.925616577197962,3.5101827174319453C5.051479767570351,4.519286315887525,4.7533950542067345,7.193062092750764,4.373471029008121,9.287420368856846C4.038691254399753,11.132917744963613,5.317404327238564,13.008423842244953,4.872087303841042,14.830409245966992C4.335137221510457,17.027305302330767,1.6978149123632136,18.42372335729314,1.5883318162142022,20.68263484848512C1.483135238711179,22.853104684597728,2.256484787580521,25.80530926308516,4.305031449510292,26.53019698079697C6.910391452323026,27.452115676306427,9.72591344171674,23.297562478019774,12.23743117536947,24.450867944465717C14.793536950086915,25.624648532711124,13.269826930415357,31.224147560328603,16,31.90060347980923" fill="#05698a" strokewidth="0"/>
</g>
<g id="SVGRepo_tracerCarrier" stroke-linecap="round" stroke-linejoin="round" stroke="#CCCCCC" stroke-width="2.816"/>
<g id="SVGRepo_iconCarrier">
<path d="M94.9 71.35c-8.08-7.63-21.82-13.99-30.91-18.2c-1.54-.71-2.93-1.35-4.11-1.92c-3.43-1.65-8.12-6.22-6.1-11.47c1.36-3.55 4.81-5.34 10.27-5.34c1.75 0 3.67.2 5.72.58c7.12 1.33 12.52 3.99 15.58 5.5c.38.19.82.21 1.22.07c.39-.15.72-.45.89-.84l7.01-15.81c.31-.69.07-1.51-.57-1.93c-4.94-3.28-17.27-8.15-30.97-8.15c-1.98 0-3.95.1-5.87.3c-10.92 1.12-21.86 4.03-27.92 17.64c-3.78 8.47-3.77 18.01.01 24.89c4.04 7.51 10.66 10.87 19.04 15.11l1.08.55c6.05 3.02 13.3 6.38 18.07 8.59c7.05 3.4 9.66 9.44 8.04 13.08c-2.61 5.87-8.38 7.16-18.36 4.33c-8.81-2.39-16.94-9.14-19.21-11.15c-.34-.3-.79-.44-1.25-.38c-.45.06-.85.32-1.1.69L24.6 104.14c-.41.63-.32 1.46.22 1.98c5.63 5.43 10.22 8.59 18.17 12.5c5.35 2.63 13.18 4.21 20.95 4.21c8.12 0 27.95-1.88 36.65-19.26c5.55-11.12 3.48-22.84-5.69-32.22z" fill="#ffffff"/>
</g>
</svg>